<?xml version="1.0" standalone="no"?><!DOCTYPE svg PUBLIC "-//W3C//DTD SVG 1.1//EN" "http://www.w3.org/Graphics/SVG/1.1/DTD/svg11.dtd"><svg t="1585749350676" class="icon" viewBox="0 0 1024 1024" version="1.1" xmlns="http://www.w3.org/2000/svg" p-id="3092" xmlns:xlink="http://www.w3.org/1999/xlink" width="200" height="200"><defs><style type="text/css"></style></defs><path d="M292.8 552C366.4 640 438.4 728 512 816c73.6-88 145.6-176 219.2-264 24-27.2 60.8-76.8 81.6-148.8 11.2-40 12.8-73.6 12.8-89.6C825.6 140.8 684.8 0 512 0S198.4 140.8 198.4 313.6c0 16 1.6 49.6 12.8 89.6 20.8 72 57.6 121.6 81.6 148.8z m219.2-368c8 0 17.6 1.6 25.6 3.2s16 4.8 24 8c14.4 6.4 28.8 16 40 27.2 6.4 6.4 11.2 12.8 16 19.2 14.4 20.8 22.4 44.8 22.4 70.4 0 25.6-8 51.2-22.4 70.4-4.8 6.4-9.6 12.8-16 19.2-11.2 11.2-25.6 20.8-40 27.2-8 3.2-16 6.4-24 8-8 1.6-17.6 3.2-25.6 3.2-70.4 0-126.4-56-126.4-126.4s56-129.6 126.4-129.6z" p-id="3093"></path><path d="M654.4 704l-3.2 4.8-108.8 131.2-30.4 36.8-30.4-36.8-112-136C208 726.4 91.2 787.2 91.2 859.2 91.2 950.4 280 1024 512 1024s420.8-73.6 420.8-164.8c0-70.4-115.2-131.2-278.4-155.2z" p-id="3094"></path></svg>