<?xml version="1.0" standalone="no"?><!DOCTYPE svg PUBLIC "-//W3C//DTD SVG 1.1//EN" "http://www.w3.org/Graphics/SVG/1.1/DTD/svg11.dtd"><svg t="1585749370970" class="icon" viewBox="0 0 1109 1024" version="1.1" xmlns="http://www.w3.org/2000/svg" p-id="3828" xmlns:xlink="http://www.w3.org/1999/xlink" width="216.6015625" height="200"><defs><style type="text/css"></style></defs><path d="M1107.024721 38.233441L1103.355403 10.41489l-30.549206-4.949313A669.863876 669.863876 0 0 0 984.998563 0.004267c-60.586414 0-150.868705 7.679968-236.543015 44.629147-66.303724 28.586548-124.586148 95.14627-173.311278 197.972508a821.500577 821.500577 0 0 0-13.738609 30.634539 424.275566 424.275566 0 0 0-32.341199-68.607714A345.939892 345.939892 0 0 0 414.803605 87.043904a557.736343 557.736343 0 0 0-295.16677-85.332978A420.862246 420.862246 0 0 0 30.975871 10.073558L3.839984 16.558864l-2.559989 26.282557c0 0.682664-6.058641 59.562418 8.106633 135.423436 8.191966 43.690485 21.50391 84.223649 39.765167 120.575498a342.185241 342.185241 0 0 0 92.586281 115.455519c54.44244 43.26382 112.127533 75.178353 171.519285 94.804938 44.373148 14.677272 82.772988 27.22122 131.754118 27.22122 10.495956 0 20.309249 0.426665 29.354544 0.767997 13.653276 0.511998 25.770559 1.109329 36.863847 0.085333V1024h86.868971V432.81313l6.399974 1.023996c40.1065 6.143974 81.322328 12.373282 116.308848 12.373281 128.426132 0 227.839051-36.181183 295.337436-107.519552 113.748859-120.319499 91.903617-293.289445 90.879622-300.542747" p-id="3829"></path></svg>