<?xml version="1.0" standalone="no"?><!DOCTYPE svg PUBLIC "-//W3C//DTD SVG 1.1//EN" "http://www.w3.org/Graphics/SVG/1.1/DTD/svg11.dtd"><svg t="1585749384179" class="icon" viewBox="0 0 1228 1024" version="1.1" xmlns="http://www.w3.org/2000/svg" p-id="4547" xmlns:xlink="http://www.w3.org/1999/xlink" width="239.84375" height="200"><defs><style type="text/css"></style></defs><path d="M520.619458 712.217984l-152.164693 0.122845-0.122845-116.621379v-13.308268c150.362958-22.849273 265.141654-143.483607 265.018808-289.219383C633.186934 131.322307 491.300319 0.123255 316.409199 0.287049 141.559027 0.409895-0.122846 131.772741 0 293.724129c0.122846 145.653879 115.147233 266.124419 265.551139 288.809898v13.226371l0.122846 116.62138-156.177648 0.122845c-28.418272 0.040949-51.39039 21.334178-51.349441 47.623127 0 26.288949 23.054016 47.582178 51.39039 47.582178l156.218596-0.122846 0.122846 168.83074c0 26.288949 23.054016 47.582178 51.431338 47.582178 28.377323-0.040949 51.39039-21.334178 51.349442-47.623126l-0.163794-168.912637 152.164693-0.122846c28.418272 0 51.39039-21.334178 51.349441-47.623126 0-26.207052-23.013067-47.500281-51.39039-47.500281z m442.366841-270.956344l-0.245691-277.549055L1058.846779 254.167861c10.073335 9.459108 23.340655 14.209136 36.689873 14.209136 12.939732 0 25.96136-4.504337 35.993747-13.676805a45.04337 45.04337 0 0 0 0.532331-67.278415l-149.666834-140.862903a90.332431 90.332431 0 0 0-59.621042-32.431226c-19.286752-2.21122-49.138222 1.351301-79.685816 29.605779-39.351526 36.607975-152.656075 144.138783-152.656075 144.138783l0.245691 0.122846c-9.008674 8.599189-14.659569 20.228568-14.65957 33.127351 0 26.288949 23.054016 47.582178 51.472287 47.582178a53.233073 53.233073 0 0 0 36.607976-14.413879S814.711715 206.217146 859.918879 163.548791l0.245691 277.794746c-150.362958 22.93117-265.182603 143.483607-265.018809 289.219383 0.122846 161.951389 142.091358 293.109492 316.94153 292.986646 174.850172-0.122846 316.491096-131.52664 316.36825-293.478028-0.122846-145.653879-115.065336-266.165367-265.469242-288.76895z" p-id="4548"></path></svg>