<?xml version="1.0" standalone="no"?><!DOCTYPE svg PUBLIC "-//W3C//DTD SVG 1.1//EN" "http://www.w3.org/Graphics/SVG/1.1/DTD/svg11.dtd"><svg t="1585747931010" class="icon" viewBox="0 0 1024 1024" version="1.1" xmlns="http://www.w3.org/2000/svg" p-id="2253" xmlns:xlink="http://www.w3.org/1999/xlink" width="200" height="200"><defs><style type="text/css"></style></defs><path d="M960 686.4s1.92 157.696-162.88 157.696H226.88C64 844.096 64 686.4 64 686.4V311.808c0-129.28 57.536-154.048 165.12-169.984l565.888 0.192C882.56 158.912 960 182.72 960 311.488V686.4zM155.264 325.632v356.48h267.264v-356.48H155.264z m553.408 221.952H544c-24.448 0-48.384 22.4-48.384 47.36 0 24.832 24.064 47.296 48.384 47.296h164.608c24.448 0 48.448-22.4 48.448-47.36 0-24.832-24.128-47.296-48.448-47.296zM830.08 381.312H544.064c-24.448 0-48.384 22.4-48.384 47.36 0 24.832 24.064 47.296 48.384 47.36h286.08c24.448 0 48.384-22.528 48.384-47.36 0-24.96-24.064-47.36-48.448-47.36z" p-id="2254"></path></svg>