<?xml version="1.0" standalone="no"?><!DOCTYPE svg PUBLIC "-//W3C//DTD SVG 1.1//EN" "http://www.w3.org/Graphics/SVG/1.1/DTD/svg11.dtd"><svg t="1585749412850" class="icon" viewBox="0 0 1024 1024" version="1.1" xmlns="http://www.w3.org/2000/svg" p-id="6115" xmlns:xlink="http://www.w3.org/1999/xlink" width="200" height="200"><defs><style type="text/css"></style></defs><path d="M4 270.312c8.16-31.028 13.994-62.914 25.056-92.876 13.72-37.148 40.66-62.254 80.35-72.862A1085.464 1085.464 0 0 0 196.14 77.46c28.49-10.234 52.55-3.62 70.594 18.58 52.982 65.18 83.392 139.28 83.3 224.43-0.024 26.734-11.494 44.416-36.714 56.08-48.64 22.488-56.586 52.3-20.842 93.232 51.516 58.978 106.052 115.42 161.068 171.206 32.23 32.684 66.78 63.35 102.31 92.45 43.346 35.492 70.972 28.612 94.918-22.172 11.26-23.874 29.184-35.59 54.152-35.3 86.98 1.012 163.382 30.834 229.196 87.496 18.49 15.92 23.17 36.656 16.592 59.84-5.992 21.112-12.02 42.208-18.79 63.088-33.104 102.08-106.354 149.524-213.04 128.51-57.772-11.368-116.376-29.678-168.53-56.604-247.202-127.668-428.24-316.764-522.886-582.306-6.294-17.646-11.164-35.99-14.64-54.398-3.082-16.344-3.306-33.222-4.79-49.868L4 270.312zM547.552 11.038c256.354 8.448 466.844 221.256 472.22 477.414 0.84 39.988-14.176 59.94-46.088 61.218-34.7 1.382-50.94-16.626-52.646-58.388-8.6-210.15-173.7-373.312-386.286-381.76-40.866-1.624-62.68-19.208-62.458-50.328 0.242-32.92 23.64-50.2 65.868-48.646 3.132 0.116 6.258 0.332 9.39 0.49z" fill="#4C4C4C" p-id="6116"></path><path d="M511.584 203.04c170.714 4.654 315.598 150.64 314.34 316.738-0.276 36.186-16.672 56.456-46.848 57.924-30.278 1.466-49.22-18.42-51.592-54.164-8.274-124.724-96.226-212.66-221.528-221.488-39.304-2.764-62.09-22.92-60.2-53.238 1.95-31.188 24.536-46.894 65.828-45.772z" fill="#4C4C4C" p-id="6117"></path></svg>